<svg width="207" height="63" viewBox="0 0 207 63" fill="none" xmlns="http://www.w3.org/2000/svg">
<g clip-path="url(#clip0_4031_12)">
<path d="M31.5 12.1049C34.7914 12.1049 37.4596 9.43667 37.4596 6.14528C37.4596 2.85388 34.7914 0.185669 31.5 0.185669C28.2086 0.185669 25.5404 2.85388 25.5404 6.14528C25.5404 9.43667 28.2086 12.1049 31.5 12.1049Z" fill="#181818"/>
<path d="M31.5 62.8144C34.7914 62.8144 37.4596 60.1461 37.4596 56.8547C37.4596 53.5633 34.7914 50.8951 31.5 50.8951C28.2086 50.8951 25.5404 53.5633 25.5404 56.8547C25.5404 60.1461 28.2086 62.8144 31.5 62.8144Z" fill="#181818"/>
<path d="M6.14525 37.4596C9.43665 37.4596 12.1049 34.7914 12.1049 31.5C12.1049 28.2086 9.43665 25.5404 6.14525 25.5404C2.85385 25.5404 0.185646 28.2086 0.185646 31.5C0.185646 34.7914 2.85385 37.4596 6.14525 37.4596Z" fill="#181818"/>
<path d="M56.8547 37.4596C60.1461 37.4596 62.8143 34.7914 62.8143 31.5C62.8143 28.2086 60.1461 25.5404 56.8547 25.5404C53.5633 25.5404 50.8951 28.2086 50.8951 31.5C50.8951 34.7914 53.5633 37.4596 56.8547 37.4596Z" fill="#181818"/>
<path d="M48.7731 47.7198L40.6328 39.5795C38.5072 37.4539 37.4352 34.5448 37.4546 31.5388C37.4548 31.5129 37.4548 31.4871 37.4546 31.4613C37.4352 28.4553 38.5072 25.5462 40.6328 23.4206L48.792 15.2614C50.9169 13.1364 53.8285 12.0883 56.8336 12.1021C58.4015 12.1093 59.9712 11.5013 61.1503 10.2763C63.2986 8.04443 63.3533 4.43272 61.2689 2.14104C58.9631 -0.394192 55.036 -0.464135 52.6407 1.9312C51.4606 3.11126 50.8804 4.66229 50.8983 6.20818C50.933 9.20634 49.8399 12.1066 47.7198 14.2268L39.5794 22.3672C37.4538 24.4928 34.5447 25.5648 31.5387 25.5454C31.5129 25.5452 31.4871 25.5452 31.4613 25.5454C28.4553 25.5648 25.5462 24.4928 23.4206 22.3672L15.2614 14.208C13.1364 12.083 12.0883 9.17148 12.1021 6.16636C12.1093 4.59848 11.5012 3.02879 10.2762 1.84966C8.04434 -0.298602 4.43264 -0.353247 2.14099 1.73113C-0.394208 4.03702 -0.464141 7.96404 1.93119 10.3594C3.11123 11.5394 4.66228 12.1197 6.20817 12.1018C9.20637 12.0671 12.1067 13.1601 14.2269 15.2803L22.3672 23.4206C24.4927 25.5462 25.5648 28.4553 25.5453 31.4613C25.5452 31.4871 25.5452 31.5129 25.5453 31.5388C25.5648 34.5448 24.4927 37.4539 22.3672 39.5795L14.208 47.7387C12.083 49.8636 9.1715 50.9118 6.16639 50.8979C4.59851 50.8907 3.02881 51.4988 1.84969 52.7238C-0.29859 54.9556 -0.353264 58.5673 1.73109 60.859C4.03695 63.3942 7.96402 63.4642 10.3593 61.0689C11.5394 59.8888 12.1197 58.3377 12.1018 56.7918C12.067 53.7937 13.1601 50.8934 15.2802 48.7733L23.4206 40.6329C25.5462 38.5073 28.4553 37.4352 31.4613 37.4547C31.4871 37.4548 31.5129 37.4548 31.5387 37.4547C34.5447 37.4352 37.4538 38.5073 39.5794 40.6329L47.7387 48.7922C49.8636 50.9171 50.9118 53.8286 50.8979 56.8337C50.8907 58.4015 51.4988 59.9712 52.7237 61.1503C54.9556 63.2986 58.5673 63.3533 60.859 61.269C63.3942 58.9631 63.4642 55.036 61.0688 52.6407C59.8888 51.4606 58.3377 50.8804 56.7918 50.8983C53.7936 50.933 50.8933 49.84 48.7731 47.7198Z" fill="#181818"/>
</g>
<path d="M97.9863 43.4219C96.0879 43.4219 94.4238 43.1348 92.9941 42.5605C91.5762 41.9863 90.4512 41.166 89.6191 40.0996C88.7871 39.0215 88.3184 37.7383 88.2129 36.25L88.1953 35.9863H92.0449L92.0801 36.2148C92.1973 36.9883 92.5195 37.6621 93.0469 38.2363C93.5859 38.7988 94.2891 39.2324 95.1562 39.5371C96.0234 39.8418 97.0195 39.9941 98.1445 39.9941C99.2812 39.9941 100.26 39.8359 101.08 39.5195C101.9 39.2031 102.533 38.752 102.979 38.166C103.436 37.5801 103.664 36.8945 103.664 36.1094V36.0918C103.664 35.0723 103.295 34.2637 102.557 33.666C101.83 33.0566 100.623 32.5703 98.9355 32.207L96.1758 31.627C93.6914 31.0996 91.8398 30.2559 90.6211 29.0957C89.4023 27.9238 88.793 26.4004 88.793 24.5254V24.5078C88.8047 23.0664 89.2031 21.8008 89.9883 20.7109C90.7734 19.6094 91.8574 18.7539 93.2402 18.1445C94.623 17.5234 96.2109 17.2129 98.0039 17.2129C99.7617 17.2129 101.314 17.5117 102.662 18.1094C104.01 18.707 105.076 19.5449 105.861 20.623C106.646 21.6895 107.086 22.9375 107.18 24.3672L107.197 24.6484H103.348L103.312 24.4199C103.207 23.623 102.914 22.9434 102.434 22.3809C101.965 21.8184 101.35 21.3906 100.588 21.0977C99.8262 20.793 98.9414 20.6406 97.9336 20.6406C96.8906 20.6406 95.9824 20.7988 95.209 21.1152C94.4355 21.4199 93.8379 21.8477 93.416 22.3984C92.9941 22.9492 92.7832 23.5996 92.7832 24.3496V24.3672C92.7832 25.3164 93.1582 26.0898 93.9082 26.6875C94.6582 27.2852 95.8242 27.7539 97.4062 28.0938L100.166 28.6914C101.912 29.0547 103.336 29.5469 104.438 30.168C105.539 30.7891 106.354 31.5625 106.881 32.4883C107.408 33.4141 107.672 34.5332 107.672 35.8457V35.8633C107.672 37.4102 107.279 38.752 106.494 39.8887C105.721 41.0137 104.607 41.8867 103.154 42.5078C101.713 43.1172 99.9902 43.4219 97.9863 43.4219ZM118.611 43.3691C116.841 43.3691 115.295 42.9824 113.97 42.209C112.658 41.4238 111.638 40.3164 110.912 38.8867C110.185 37.4453 109.822 35.7344 109.822 33.7539V33.7188C109.822 31.75 110.185 30.0508 110.912 28.6211C111.65 27.1914 112.675 26.0898 113.988 25.3164C115.312 24.543 116.847 24.1562 118.593 24.1562C120.351 24.1562 121.886 24.543 123.199 25.3164C124.523 26.0781 125.548 27.1738 126.275 28.6035C127.013 30.0332 127.382 31.7383 127.382 33.7188V33.7539C127.382 35.7461 127.013 37.457 126.275 38.8867C125.548 40.3164 124.529 41.4238 123.216 42.209C121.904 42.9824 120.369 43.3691 118.611 43.3691ZM118.629 40.1699C119.613 40.1699 120.468 39.918 121.195 39.4141C121.921 38.9102 122.484 38.1836 122.882 37.2344C123.281 36.2734 123.48 35.1133 123.48 33.7539V33.7188C123.48 32.3711 123.281 31.2227 122.882 30.2734C122.484 29.3125 121.916 28.5859 121.177 28.0938C120.439 27.5898 119.578 27.3379 118.593 27.3379C117.621 27.3379 116.765 27.5898 116.027 28.0938C115.3 28.5977 114.732 29.3242 114.322 30.2734C113.912 31.2227 113.707 32.3711 113.707 33.7188V33.7539C113.707 35.1133 113.906 36.2734 114.304 37.2344C114.714 38.1836 115.289 38.9102 116.027 39.4141C116.765 39.918 117.632 40.1699 118.629 40.1699ZM138.181 43.3691C136.388 43.3691 134.829 42.9766 133.505 42.1914C132.193 41.4062 131.179 40.293 130.464 38.8516C129.761 37.4102 129.409 35.7051 129.409 33.7363V33.7188C129.409 31.7617 129.767 30.0684 130.482 28.6387C131.208 27.209 132.228 26.1074 133.54 25.334C134.853 24.5488 136.388 24.1562 138.146 24.1562C139.728 24.1562 141.093 24.4609 142.241 25.0703C143.402 25.668 144.31 26.4648 144.966 27.4609C145.622 28.457 146.003 29.5352 146.109 30.6953L146.126 30.8359H142.487L142.452 30.6777C142.253 29.7754 141.796 28.9961 141.081 28.3398C140.378 27.6719 139.405 27.3379 138.163 27.3379C137.191 27.3379 136.335 27.6016 135.597 28.1289C134.87 28.6445 134.302 29.3828 133.892 30.3438C133.493 31.3047 133.294 32.4414 133.294 33.7539V33.7715C133.294 35.1191 133.499 36.2734 133.909 37.2344C134.32 38.1836 134.888 38.9102 135.614 39.4141C136.353 39.918 137.214 40.1699 138.198 40.1699C139.37 40.1699 140.314 39.8652 141.029 39.2559C141.755 38.6348 142.236 37.8262 142.47 36.8301L142.487 36.6895H146.144V36.8125C146.003 38.043 145.581 39.1562 144.878 40.1523C144.187 41.1367 143.267 41.9219 142.118 42.5078C140.982 43.082 139.669 43.3691 138.181 43.3691ZM148.909 43V24.5078H152.741V43H148.909ZM150.825 21.6602C150.216 21.6602 149.694 21.4492 149.261 21.0273C148.827 20.5938 148.61 20.0781 148.61 19.4805C148.61 18.8594 148.827 18.3379 149.261 17.916C149.694 17.4941 150.216 17.2832 150.825 17.2832C151.446 17.2832 151.968 17.4941 152.389 17.916C152.823 18.3379 153.04 18.8594 153.04 19.4805C153.04 20.0781 152.823 20.5938 152.389 21.0273C151.968 21.4492 151.446 21.6602 150.825 21.6602ZM164.436 43.3691C162.631 43.3691 161.073 42.9824 159.76 42.209C158.459 41.4238 157.457 40.3164 156.754 38.8867C156.063 37.4453 155.717 35.752 155.717 33.8066V33.7891C155.717 31.8672 156.069 30.1855 156.772 28.7441C157.475 27.291 158.465 26.166 159.743 25.3691C161.02 24.5605 162.52 24.1562 164.243 24.1562C165.977 24.1562 167.465 24.543 168.707 25.3164C169.961 26.0781 170.928 27.1621 171.608 28.5684C172.287 29.9629 172.627 31.5859 172.627 33.4375V34.7207H157.598V32.0312H170.782L168.901 34.5449V33.0684C168.901 31.7676 168.702 30.6895 168.303 29.834C167.916 28.9668 167.371 28.3223 166.668 27.9004C165.977 27.4785 165.174 27.2676 164.26 27.2676C163.358 27.2676 162.549 27.4902 161.834 27.9355C161.12 28.3809 160.557 29.0371 160.147 29.9043C159.737 30.7598 159.532 31.8145 159.532 33.0684V34.5449C159.532 35.7402 159.731 36.7656 160.129 37.6211C160.539 38.4648 161.12 39.1152 161.87 39.5723C162.62 40.0176 163.504 40.2402 164.524 40.2402C165.274 40.2402 165.936 40.1289 166.51 39.9062C167.084 39.6719 167.559 39.3672 167.934 38.9922C168.321 38.6055 168.59 38.1777 168.743 37.709L168.795 37.5684H172.416L172.381 37.7617C172.229 38.4883 171.942 39.1855 171.52 39.8535C171.098 40.5215 170.547 41.125 169.868 41.6641C169.2 42.1914 168.409 42.6074 167.495 42.9121C166.58 43.2168 165.561 43.3691 164.436 43.3691ZM181.967 43.3691C180.139 43.3691 178.773 42.959 177.871 42.1387C176.98 41.3066 176.535 39.9648 176.535 38.1133V27.5312H173.881V24.5078H176.535V19.6914H180.438V24.5078H183.9V27.5312H180.438V37.9023C180.438 38.8398 180.643 39.4844 181.053 39.8359C181.463 40.1758 182.072 40.3457 182.881 40.3457C183.08 40.3457 183.262 40.3398 183.426 40.3281C183.602 40.3047 183.76 40.2871 183.9 40.2754V43.2109C183.678 43.2461 183.396 43.2812 183.057 43.3164C182.717 43.3516 182.354 43.3691 181.967 43.3691ZM189.109 49.1699C188.746 49.1699 188.382 49.1523 188.019 49.1172C187.656 49.082 187.357 49.041 187.123 48.9941V46.0234C187.263 46.0469 187.439 46.0703 187.65 46.0938C187.873 46.1289 188.113 46.1465 188.371 46.1465C189.273 46.1465 189.988 45.9941 190.515 45.6895C191.054 45.3848 191.476 44.7871 191.781 43.8965L192.097 43.0176L185.365 24.5078H189.496L194.4 40.3809L193.732 39.5547H194.664L193.996 40.3809L198.918 24.5078H202.943L196.052 43.8438C195.595 45.1211 195.056 46.1523 194.435 46.9375C193.826 47.7227 193.088 48.291 192.22 48.6426C191.365 48.9941 190.328 49.1699 189.109 49.1699Z" fill="#181818"/>
<defs>
<clipPath id="clip0_4031_12">
<rect width="63" height="63" fill="white"/>
</clipPath>
</defs>
</svg>
