<svg width="63" height="63" viewBox="0 0 63 63" fill="none" xmlns="http://www.w3.org/2000/svg">
<g clip-path="url(#clip0_4024_20)">
<path d="M31.5 12.1049C34.7914 12.1049 37.4596 9.43667 37.4596 6.14528C37.4596 2.85388 34.7914 0.185669 31.5 0.185669C28.2086 0.185669 25.5404 2.85388 25.5404 6.14528C25.5404 9.43667 28.2086 12.1049 31.5 12.1049Z" fill="white"/>
<path d="M31.5 62.8144C34.7914 62.8144 37.4596 60.1461 37.4596 56.8547C37.4596 53.5633 34.7914 50.8951 31.5 50.8951C28.2086 50.8951 25.5404 53.5633 25.5404 56.8547C25.5404 60.1461 28.2086 62.8144 31.5 62.8144Z" fill="white"/>
<path d="M6.14525 37.4596C9.43665 37.4596 12.1049 34.7914 12.1049 31.5C12.1049 28.2086 9.43665 25.5404 6.14525 25.5404C2.85385 25.5404 0.185646 28.2086 0.185646 31.5C0.185646 34.7914 2.85385 37.4596 6.14525 37.4596Z" fill="white"/>
<path d="M56.8547 37.4596C60.1461 37.4596 62.8143 34.7914 62.8143 31.5C62.8143 28.2086 60.1461 25.5404 56.8547 25.5404C53.5633 25.5404 50.8951 28.2086 50.8951 31.5C50.8951 34.7914 53.5633 37.4596 56.8547 37.4596Z" fill="white"/>
<path d="M48.7731 47.7198L40.6328 39.5795C38.5072 37.4539 37.4352 34.5448 37.4546 31.5388C37.4548 31.5129 37.4548 31.4871 37.4546 31.4613C37.4352 28.4553 38.5072 25.5462 40.6328 23.4206L48.792 15.2614C50.9169 13.1364 53.8285 12.0883 56.8336 12.1021C58.4015 12.1093 59.9712 11.5013 61.1503 10.2763C63.2986 8.04443 63.3533 4.43272 61.2689 2.14104C58.9631 -0.394192 55.036 -0.464135 52.6407 1.9312C51.4606 3.11126 50.8804 4.66229 50.8983 6.20818C50.933 9.20634 49.8399 12.1066 47.7198 14.2268L39.5794 22.3672C37.4538 24.4928 34.5447 25.5648 31.5387 25.5454C31.5129 25.5452 31.4871 25.5452 31.4613 25.5454C28.4553 25.5648 25.5462 24.4928 23.4206 22.3672L15.2614 14.208C13.1364 12.083 12.0883 9.17148 12.1021 6.16636C12.1093 4.59848 11.5012 3.02879 10.2762 1.84966C8.04434 -0.298602 4.43264 -0.353247 2.14099 1.73113C-0.394208 4.03702 -0.464141 7.96404 1.93119 10.3594C3.11123 11.5394 4.66228 12.1197 6.20817 12.1018C9.20637 12.0671 12.1067 13.1601 14.2269 15.2803L22.3672 23.4206C24.4927 25.5462 25.5648 28.4553 25.5453 31.4613C25.5452 31.4871 25.5452 31.5129 25.5453 31.5388C25.5648 34.5448 24.4927 37.4539 22.3672 39.5795L14.208 47.7387C12.083 49.8636 9.1715 50.9118 6.16639 50.8979C4.59851 50.8907 3.02881 51.4988 1.84969 52.7238C-0.29859 54.9556 -0.353264 58.5673 1.73109 60.859C4.03695 63.3942 7.96402 63.4642 10.3593 61.0689C11.5394 59.8888 12.1197 58.3377 12.1018 56.7918C12.067 53.7937 13.1601 50.8934 15.2802 48.7733L23.4206 40.6329C25.5462 38.5073 28.4553 37.4352 31.4613 37.4547C31.4871 37.4548 31.5129 37.4548 31.5387 37.4547C34.5447 37.4352 37.4538 38.5073 39.5794 40.6329L47.7387 48.7922C49.8636 50.9171 50.9118 53.8286 50.8979 56.8337C50.8907 58.4015 51.4988 59.9712 52.7237 61.1503C54.9556 63.2986 58.5673 63.3533 60.859 61.269C63.3942 58.9631 63.4642 55.036 61.0688 52.6407C59.8888 51.4606 58.3377 50.8804 56.7918 50.8983C53.7936 50.933 50.8933 49.84 48.7731 47.7198Z" fill="white"/>
</g>
<defs>
<clipPath id="clip0_4024_20">
<rect width="63" height="63" fill="white"/>
</clipPath>
</defs>
</svg>
