<svg width="32" height="32" viewBox="0 0 63 63" fill="none" xmlns="http://www.w3.org/2000/svg">
  <circle cx="31.5" cy="6.15" r="5.96" fill="currentColor"/>
  <circle cx="31.5" cy="56.85" r="5.96" fill="currentColor"/>
  <circle cx="6.15" cy="31.5" r="5.96" fill="currentColor"/>
  <circle cx="56.85" cy="31.5" r="5.96" fill="currentColor"/>
  <path d="M48.77 47.72L40.63 39.58C38.51 37.45 37.44 34.54 37.45 31.54C37.44 28.46 38.51 25.55 40.63 23.42L48.79 15.26C50.92 13.14 53.83 12.09 56.83 12.1C58.4 12.11 59.97 11.5 61.15 10.28C63.3 8.04 63.35 4.43 61.27 2.14C58.96 -0.39 55.04 -0.46 52.64 1.93C51.46 3.11 50.88 4.66 50.9 6.21C50.93 9.21 49.84 12.11 47.72 14.23L39.58 22.37C37.45 24.49 34.54 25.56 31.54 25.55C28.46 25.56 25.55 24.49 23.42 22.37L15.26 14.21C13.14 12.08 12.09 9.17 12.1 6.17C12.11 4.6 11.5 3.03 10.28 1.85C8.04 -0.3 4.43 -0.35 2.14 1.73C-0.39 4.04 -0.46 7.96 1.93 10.36C3.11 11.54 4.66 12.12 6.21 12.1C9.21 12.07 12.11 13.16 14.23 15.28L22.37 23.42C24.49 25.55 25.56 28.46 25.55 31.46C25.56 34.54 24.49 37.45 22.37 39.58L14.21 47.74C12.08 49.86 9.17 50.91 6.17 50.9C4.6 50.89 3.03 51.5 1.85 52.72C-0.3 54.96 -0.35 58.57 1.73 60.86C4.04 63.39 7.96 63.46 10.36 61.07C11.54 59.89 12.12 58.34 12.1 56.79C12.07 53.79 13.16 50.89 15.28 48.77L23.42 40.63C25.55 38.51 28.46 37.44 31.46 37.45C34.54 37.44 37.45 38.51 39.58 40.63L47.74 48.79C49.86 50.92 50.91 53.83 50.9 56.83C50.89 58.4 51.5 59.97 52.72 61.15C54.96 63.3 58.57 63.35 60.86 61.27C63.39 58.96 63.46 55.04 61.07 52.64C59.89 51.46 58.34 50.88 56.79 50.9C53.79 50.93 50.89 49.84 48.77 47.72Z" fill="currentColor"/>
</svg>
